<svg width="26" height="24" viewBox="0 0 26 24" fill="none" xmlns="http://www.w3.org/2000/svg">
<g clip-path="url(#clip0_219_11)">
<rect width="26" height="24" rx="5" fill="black"/>
<path d="M10.97 17.168C10.5033 16.412 10.27 14.6993 10.27 12.03L10.284 11.176C10.284 11.12 10.298 11.078 10.326 11.05C10.354 11.022 10.382 11.008 10.41 11.008L10.452 10.994C11.2267 10.91 11.9453 10.5973 12.608 10.056C13.28 9.50533 13.616 8.87533 13.616 8.166C13.616 7.886 13.5413 7.64333 13.392 7.438C13.252 7.22333 13.0607 7.06467 12.818 6.962C12.5847 6.85 12.342 6.77067 12.09 6.724C11.8473 6.668 11.6047 6.64 11.362 6.64C10.9327 6.64 10.508 6.71 10.088 6.85C9.668 6.99 9.29933 7.21867 8.982 7.536C8.66467 7.85333 8.506 8.22667 8.506 8.656C8.506 8.91733 8.58067 9.17867 8.73 9.44C8.76733 9.53333 8.786 9.594 8.786 9.622C8.786 9.678 8.758 9.706 8.702 9.706C8.618 9.706 8.51067 9.664 8.38 9.58C7.80133 9.23467 7.512 8.81933 7.512 8.334C7.512 7.69933 7.89933 7.2 8.674 6.836C9.458 6.472 10.3773 6.29 11.432 6.29C11.7867 6.29 12.132 6.31333 12.468 6.36C12.8133 6.40667 13.182 6.486 13.574 6.598C13.966 6.71 14.2787 6.892 14.512 7.144C14.7547 7.38667 14.876 7.68533 14.876 8.04C14.876 8.516 14.666 8.98267 14.246 9.44C13.8353 9.89733 13.378 10.266 12.874 10.546C12.37 10.826 11.894 11.022 11.446 11.134C11.3807 11.1807 11.348 11.232 11.348 11.288C11.348 11.624 11.3573 12.0067 11.376 12.436C11.3947 12.856 11.432 13.4487 11.488 14.214C11.5533 14.97 11.67 15.656 11.838 16.272C12.0153 16.8787 12.2347 17.3033 12.496 17.546C12.5427 17.5927 12.566 17.6347 12.566 17.672C12.566 17.7467 12.4493 17.784 12.216 17.784C11.9453 17.784 11.7073 17.7327 11.502 17.63C11.2967 17.5273 11.1567 17.434 11.082 17.35C11.0167 17.266 10.9793 17.2053 10.97 17.168ZM7.792 14.774C7.596 15.222 7.38133 15.628 7.148 15.992C6.91467 16.356 6.7 16.6407 6.504 16.846C6.308 17.0513 6.126 17.224 5.958 17.364C5.79 17.504 5.65467 17.5973 5.552 17.644L5.412 17.714C5.356 17.742 5.3 17.756 5.244 17.756C5.14133 17.756 5.09 17.6953 5.09 17.574L5.132 17.406C5.22533 17.1447 5.54267 16.4867 6.084 15.432C6.63467 14.368 7.15267 13.4067 7.638 12.548C8.086 11.7453 8.51533 10.9987 8.926 10.308C9.346 9.608 9.64933 9.11333 9.836 8.824L10.13 8.376C10.3633 8.05867 10.6013 7.816 10.844 7.648C11.0867 7.48 11.2827 7.396 11.432 7.396C11.5347 7.396 11.586 7.43333 11.586 7.508C11.586 7.564 11.5487 7.662 11.474 7.802C11.4087 7.914 11.1473 8.38067 10.69 9.202C10.242 10.014 9.70533 11.008 9.08 12.184C8.464 13.3507 8.03467 14.214 7.792 14.774ZM19.4118 12.422C19.4864 12.422 19.5564 12.4967 19.6218 12.646C19.6964 12.786 19.7338 12.9213 19.7338 13.052C19.7338 13.164 19.7151 13.276 19.6778 13.388C19.6498 13.5 19.6218 13.584 19.5938 13.64L19.5378 13.738C19.0804 14.6247 18.3991 15.4413 17.4938 16.188C16.5978 16.9347 15.6971 17.308 14.7918 17.308C14.3158 17.308 13.9658 17.14 13.7418 16.804C13.5178 16.4587 13.4058 16.02 13.4058 15.488C13.4058 14.5547 13.6718 13.6027 14.2038 12.632C14.7451 11.652 15.4264 10.7607 16.2478 9.958C15.8931 9.92067 15.5618 9.78533 15.2538 9.552C14.9458 9.31867 14.7918 9.034 14.7918 8.698C14.7918 8.18467 15.2118 7.676 16.0518 7.172C16.8918 6.668 17.9324 6.416 19.1738 6.416C19.5658 6.416 20.0604 6.46733 20.6578 6.57C21.2644 6.66333 21.7311 6.71 22.0578 6.71C22.5804 6.71 22.9538 6.626 23.1778 6.458C23.2151 6.44867 23.2478 6.444 23.2758 6.444C23.3224 6.444 23.3458 6.46267 23.3458 6.5C23.3458 6.53733 23.3271 6.58867 23.2898 6.654C23.1031 6.95267 22.8511 7.19533 22.5338 7.382C22.2164 7.56867 21.8664 7.662 21.4838 7.662C21.0731 7.662 20.4664 7.55467 19.6638 7.34C18.8704 7.12533 18.2544 7.018 17.8158 7.018C17.3211 7.018 16.8498 7.158 16.4018 7.438C15.9538 7.718 15.7298 8.10067 15.7298 8.586C15.7298 8.79133 15.7858 8.992 15.8978 9.188C16.0098 9.384 16.1218 9.52867 16.2338 9.622L16.4018 9.762L16.4298 9.79C17.5218 8.754 18.5018 8.138 19.3698 7.942C19.4164 7.93267 19.4724 7.928 19.5378 7.928C19.6311 7.928 19.6778 7.956 19.6778 8.012C19.6778 8.08667 19.6078 8.152 19.4678 8.208C19.2064 8.31067 18.8331 8.57667 18.3478 9.006C17.8624 9.43533 17.3491 9.96733 16.8078 10.602C16.2664 11.2273 15.7951 11.9787 15.3938 12.856C15.0018 13.724 14.8058 14.564 14.8058 15.376C14.8058 16.2067 15.0904 16.622 15.6598 16.622C16.0704 16.622 16.4718 16.4913 16.8638 16.23C17.2651 15.9593 17.6151 15.6093 17.9138 15.18C18.2218 14.7507 18.4878 14.3167 18.7118 13.878C18.9358 13.4393 19.1224 12.996 19.2718 12.548C19.2998 12.464 19.3464 12.422 19.4118 12.422Z" fill="white"/>
</g>
<defs>
<clipPath id="clip0_219_11">
<rect width="26" height="24" rx="5" fill="white"/>
</clipPath>
</defs>
</svg>
